<svg width="799" height="492" viewBox="0 0 799 492" fill="none" xmlns="http://www.w3.org/2000/svg">
<g clip-path="url(#clip0_19_2)">
<path d="M790.396 322.95H234.238C231.956 322.948 229.769 322.041 228.156 320.429C226.543 318.817 225.636 316.632 225.633 314.352V8.59765C225.636 6.3182 226.543 4.13285 228.156 2.52104C229.769 0.909222 231.956 0.00257623 234.238 0H790.396C792.677 0.00258081 794.864 0.909236 796.477 2.52105C798.09 4.13286 798.997 6.3182 799 8.59765V314.352C798.997 316.632 798.09 318.817 796.477 320.429C794.864 322.041 792.677 322.948 790.396 322.95Z" fill="#E6E6E6"/>
<path d="M778.662 311.226H245.971C243.69 311.223 241.503 310.317 239.889 308.705C238.276 307.093 237.369 304.908 237.366 302.628V20.3217C237.369 18.0423 238.276 15.8569 239.889 14.2451C241.502 12.6333 243.69 11.7266 245.971 11.724H778.662C780.943 11.7266 783.131 12.6333 784.744 14.2451C786.357 15.8569 787.264 18.0423 787.267 20.3217V302.628C787.264 304.908 786.357 307.093 784.744 308.705C783.131 310.317 780.944 311.223 778.662 311.226Z" fill="white"/>
<path d="M395.03 185.912H294.813C293.706 185.911 292.645 185.471 291.862 184.689C291.079 183.907 290.639 182.846 290.637 181.74V77.4494C290.639 76.3432 291.079 75.2826 291.862 74.5004C292.645 73.7182 293.706 73.2782 294.813 73.2769H395.03C396.137 73.2782 397.199 73.7182 397.982 74.5004C398.764 75.2826 399.205 76.3432 399.206 77.4494V181.74C399.205 182.846 398.764 183.907 397.982 184.689C397.199 185.471 396.137 185.911 395.03 185.912ZM294.813 74.9459C294.149 74.9466 293.512 75.2106 293.042 75.6799C292.572 76.1493 292.308 76.7856 292.307 77.4494V181.74C292.308 182.404 292.572 183.04 293.042 183.509C293.512 183.979 294.149 184.243 294.813 184.243H395.03C395.695 184.243 396.331 183.979 396.801 183.509C397.271 183.04 397.535 182.404 397.536 181.74V77.4494C397.535 76.7856 397.271 76.1493 396.801 75.6799C396.331 75.2106 395.695 74.9466 395.03 74.9459H294.813Z" fill="#3F3D56"/>
<path d="M562.425 185.912H462.208C461.101 185.911 460.039 185.471 459.257 184.689C458.474 183.907 458.033 182.846 458.032 181.74V77.4494C458.033 76.3432 458.474 75.2826 459.257 74.5004C460.039 73.7182 461.101 73.2782 462.208 73.2769H562.425C563.532 73.2782 564.594 73.7182 565.377 74.5004C566.159 75.2826 566.6 76.3432 566.601 77.4494V181.74C566.6 182.846 566.159 183.907 565.377 184.689C564.594 185.471 563.532 185.911 562.425 185.912ZM462.208 74.9459C461.544 74.9466 460.907 75.2106 460.437 75.68C459.967 76.1493 459.703 76.7856 459.702 77.4494V181.74C459.703 182.404 459.967 183.04 460.437 183.509C460.907 183.979 461.544 184.243 462.208 184.243H562.425C563.09 184.243 563.726 183.979 564.196 183.509C564.666 183.04 564.93 182.404 564.931 181.74V77.4494C564.93 76.7856 564.666 76.1493 564.196 75.68C563.726 75.2106 563.09 74.9466 562.425 74.9459H462.208Z" fill="#3F3D56"/>
<path d="M729.82 185.912H629.603C628.496 185.911 627.434 185.471 626.652 184.689C625.869 183.907 625.428 182.846 625.427 181.74V77.4494C625.428 76.3432 625.869 75.2826 626.652 74.5004C627.434 73.7182 628.496 73.2782 629.603 73.2769H729.82C730.927 73.2782 731.989 73.7182 732.772 74.5004C733.554 75.2826 733.995 76.3432 733.996 77.4494V181.74C733.995 182.846 733.554 183.907 732.772 184.689C731.989 185.471 730.927 185.911 729.82 185.912ZM629.603 74.9459C628.939 74.9466 628.302 75.2106 627.832 75.6799C627.362 76.1493 627.098 76.7856 627.097 77.4494V181.74C627.098 182.404 627.362 183.04 627.832 183.509C628.302 183.979 628.939 184.243 629.603 184.243H729.82C730.485 184.243 731.121 183.979 731.591 183.509C732.061 183.04 732.325 182.404 732.326 181.74V77.4494C732.325 76.7856 732.061 76.1493 731.591 75.6799C731.121 75.2106 730.485 74.9466 729.82 74.9459H629.603Z" fill="#3F3D56"/>
<path d="M325.569 249.673C325.942 249.673 326.31 249.6 326.654 249.458C326.998 249.316 327.311 249.107 327.574 248.844C327.838 248.581 328.047 248.269 328.189 247.926C328.332 247.582 328.405 247.214 328.406 246.842C328.406 246.47 328.333 246.101 328.19 245.757C328.048 245.414 327.839 245.101 327.576 244.838C327.313 244.575 327 244.366 326.657 244.224C326.313 244.081 325.944 244.008 325.572 244.008H300.132C299.38 244.008 298.659 244.306 298.127 244.837C297.595 245.369 297.297 246.089 297.297 246.84C297.297 247.592 297.595 248.312 298.127 248.843C298.659 249.375 299.38 249.673 300.132 249.673H325.569Z" fill="#E6E6E6"/>
<path d="M389.711 232.983C390.463 232.985 391.185 232.688 391.718 232.157C392.25 231.627 392.55 230.907 392.552 230.156C392.553 229.405 392.256 228.684 391.725 228.151C391.194 227.619 390.474 227.319 389.722 227.318H300.132C299.381 227.319 298.661 227.618 298.13 228.149C297.6 228.681 297.302 229.4 297.302 230.151C297.302 230.901 297.6 231.621 298.13 232.152C298.661 232.683 299.381 232.982 300.132 232.983H389.711Z" fill="#E6E6E6"/>
<path d="M492.965 249.673C493.716 249.673 494.438 249.375 494.969 248.843C495.501 248.312 495.799 247.592 495.799 246.84C495.799 246.089 495.501 245.369 494.969 244.837C494.438 244.306 493.716 244.008 492.965 244.008H467.527C466.775 244.008 466.054 244.306 465.522 244.837C464.99 245.369 464.692 246.089 464.692 246.84C464.692 247.592 464.99 248.312 465.522 248.843C466.054 249.375 466.775 249.673 467.527 249.673H492.965Z" fill="#E6E6E6"/>
<path d="M557.107 232.983C557.858 232.982 558.577 232.683 559.108 232.152C559.639 231.621 559.936 230.901 559.936 230.151C559.936 229.4 559.639 228.681 559.108 228.149C558.577 227.618 557.858 227.319 557.107 227.318H467.527C466.776 227.319 466.056 227.618 465.525 228.149C464.995 228.681 464.697 229.4 464.697 230.151C464.697 230.901 464.995 231.621 465.525 232.152C466.056 232.683 466.776 232.982 467.527 232.983H557.107Z" fill="#E6E6E6"/>
<path d="M660.359 249.673C661.111 249.673 661.832 249.375 662.364 248.843C662.896 248.312 663.194 247.592 663.194 246.84C663.194 246.089 662.896 245.369 662.364 244.837C661.832 244.306 661.111 244.008 660.359 244.008H634.922C634.549 244.008 634.181 244.081 633.837 244.223C633.493 244.365 633.18 244.574 632.917 244.837C632.653 245.1 632.444 245.412 632.302 245.755C632.159 246.099 632.086 246.467 632.086 246.839C632.085 247.211 632.159 247.58 632.301 247.923C632.443 248.267 632.652 248.58 632.915 248.843C633.178 249.106 633.491 249.315 633.835 249.457C634.178 249.6 634.547 249.673 634.919 249.673H660.359Z" fill="#E6E6E6"/>
<path d="M724.501 232.983C725.252 232.982 725.972 232.683 726.503 232.152C727.033 231.621 727.331 230.901 727.331 230.151C727.331 229.4 727.033 228.681 726.503 228.149C725.972 227.618 725.252 227.319 724.501 227.318H634.922C634.549 227.317 634.181 227.39 633.836 227.532C633.492 227.673 633.179 227.881 632.916 228.144C632.652 228.407 632.442 228.718 632.299 229.062C632.156 229.405 632.082 229.774 632.081 230.146C632.081 230.517 632.153 230.886 632.295 231.23C632.437 231.574 632.645 231.887 632.908 232.15C633.171 232.414 633.483 232.623 633.827 232.766C634.17 232.909 634.539 232.983 634.911 232.983H724.501Z" fill="#E6E6E6"/>
<path d="M389.711 216.57C390.463 216.57 391.185 216.272 391.716 215.741C392.248 215.21 392.547 214.489 392.548 213.738C392.548 212.987 392.25 212.266 391.718 211.735C391.187 211.203 390.466 210.905 389.714 210.904H300.132C299.38 210.904 298.659 211.203 298.127 211.734C297.595 212.265 297.297 212.986 297.297 213.737C297.297 214.488 297.595 215.209 298.127 215.74C298.659 216.271 299.38 216.57 300.132 216.57H389.711Z" fill="#6C63FF"/>
<path d="M557.106 216.57C557.858 216.57 558.579 216.271 559.111 215.74C559.643 215.209 559.941 214.488 559.941 213.737C559.941 212.986 559.643 212.265 559.111 211.734C558.579 211.203 557.858 210.904 557.106 210.904H467.527C466.775 210.904 466.054 211.203 465.522 211.734C464.99 212.265 464.692 212.986 464.692 213.737C464.692 214.488 464.99 215.209 465.522 215.74C466.054 216.271 466.775 216.57 467.527 216.57H557.106Z" fill="#6C63FF"/>
<path d="M724.501 216.57C725.253 216.57 725.974 216.271 726.506 215.74C727.038 215.209 727.336 214.488 727.336 213.737C727.336 212.986 727.038 212.265 726.506 211.734C725.974 211.203 725.253 210.904 724.501 210.904H634.922C634.17 210.904 633.449 211.202 632.917 211.733C632.385 212.264 632.086 212.985 632.086 213.736C632.085 214.487 632.384 215.208 632.915 215.739C633.446 216.271 634.167 216.569 634.919 216.57H724.501Z" fill="#6C63FF"/>
<path d="M373.676 165.701C374.427 165.699 375.147 165.4 375.677 164.869C376.208 164.338 376.506 163.618 376.506 162.868C376.506 162.117 376.208 161.398 375.677 160.867C375.147 160.335 374.427 160.036 373.676 160.035H316.167C315.795 160.034 315.426 160.107 315.082 160.249C314.738 160.39 314.425 160.599 314.161 160.861C313.897 161.124 313.688 161.436 313.545 161.779C313.402 162.122 313.328 162.491 313.327 162.863C313.326 163.235 313.399 163.603 313.541 163.947C313.683 164.291 313.891 164.604 314.154 164.867C314.417 165.131 314.729 165.34 315.072 165.483C315.416 165.626 315.785 165.7 316.157 165.701H373.676Z" fill="#E6E6E6"/>
<path d="M373.676 149.011C374.427 149.009 375.147 148.71 375.677 148.179C376.208 147.648 376.506 146.928 376.506 146.178C376.506 145.428 376.208 144.708 375.677 144.177C375.147 143.646 374.427 143.347 373.676 143.345H316.167C315.795 143.345 315.426 143.417 315.082 143.559C314.738 143.701 314.425 143.909 314.161 144.171C313.897 144.434 313.688 144.746 313.545 145.089C313.402 145.433 313.328 145.801 313.327 146.173C313.326 146.545 313.399 146.913 313.541 147.257C313.683 147.601 313.891 147.914 314.154 148.177C314.417 148.441 314.729 148.65 315.072 148.793C315.416 148.936 315.785 149.01 316.157 149.011H373.676Z" fill="#E6E6E6"/>
<path d="M344.922 129.442C354.858 129.442 362.913 121.394 362.913 111.466C362.913 101.537 354.858 93.4886 344.922 93.4886C334.985 93.4886 326.931 101.537 326.931 111.466C326.931 121.394 334.985 129.442 344.922 129.442Z" fill="#ECB365"/>
<path d="M541.071 165.701C541.822 165.699 542.542 165.4 543.072 164.869C543.603 164.338 543.901 163.618 543.901 162.868C543.901 162.117 543.603 161.398 543.072 160.867C542.542 160.335 541.822 160.036 541.071 160.035H483.562C482.811 160.036 482.091 160.335 481.561 160.867C481.03 161.398 480.732 162.117 480.732 162.868C480.732 163.618 481.03 164.338 481.561 164.869C482.091 165.4 482.811 165.699 483.562 165.701H541.071Z" fill="#E6E6E6"/>
<path d="M541.071 149.011C541.822 149.009 542.542 148.71 543.072 148.179C543.603 147.648 543.901 146.928 543.901 146.178C543.901 145.428 543.603 144.708 543.072 144.177C542.542 143.646 541.822 143.347 541.071 143.345H483.562C482.811 143.347 482.091 143.646 481.561 144.177C481.03 144.708 480.732 145.428 480.732 146.178C480.732 146.928 481.03 147.648 481.561 148.179C482.091 148.71 482.811 149.009 483.562 149.011H541.071Z" fill="#E6E6E6"/>
<path d="M512.317 129.442C522.253 129.442 530.308 121.394 530.308 111.466C530.308 101.537 522.253 93.4886 512.317 93.4886C502.38 93.4886 494.326 101.537 494.326 111.466C494.326 121.394 502.38 129.442 512.317 129.442Z" fill="#ECB365"/>
<path d="M708.466 165.701C708.838 165.701 709.207 165.629 709.551 165.487C709.895 165.345 710.208 165.137 710.472 164.875C710.736 164.612 710.945 164.3 711.088 163.957C711.231 163.613 711.305 163.245 711.306 162.873C711.307 162.501 711.234 162.133 711.092 161.789C710.95 161.445 710.742 161.132 710.479 160.868C710.217 160.605 709.904 160.396 709.561 160.253C709.217 160.11 708.849 160.036 708.476 160.035H650.957C650.206 160.036 649.486 160.335 648.956 160.867C648.425 161.398 648.127 162.117 648.127 162.868C648.127 163.618 648.425 164.338 648.956 164.869C649.486 165.4 650.206 165.699 650.957 165.701H708.466Z" fill="#E6E6E6"/>
<path d="M708.466 149.011C708.838 149.011 709.207 148.939 709.551 148.797C709.895 148.655 710.208 148.447 710.472 148.185C710.736 147.922 710.945 147.61 711.088 147.267C711.231 146.923 711.305 146.555 711.306 146.183C711.307 145.811 711.234 145.443 711.092 145.099C710.95 144.755 710.742 144.442 710.479 144.179C710.217 143.915 709.904 143.706 709.561 143.563C709.217 143.42 708.849 143.346 708.476 143.345H650.957C650.206 143.347 649.486 143.646 648.956 144.177C648.425 144.708 648.127 145.428 648.127 146.178C648.127 146.928 648.425 147.648 648.956 148.179C649.486 148.71 650.206 149.009 650.957 149.011H708.466Z" fill="#E6E6E6"/>
<path d="M679.712 129.442C689.648 129.442 697.703 121.394 697.703 111.466C697.703 101.537 689.648 93.4886 679.712 93.4886C669.775 93.4886 661.72 101.537 661.72 111.466C661.72 121.394 669.775 129.442 679.712 129.442Z" fill="#ECB365"/>
<path d="M60.253 480.864H70.8971L75.9604 439.841L60.2512 439.841L60.253 480.864Z" fill="#FFB6B6"/>
<path d="M57.5376 477.392L78.4994 477.391H78.5002C82.0431 477.391 85.4407 478.797 87.9459 481.3C90.4511 483.804 91.8586 487.199 91.8588 490.739V491.172L57.5383 491.174L57.5376 477.392Z" fill="#2F2E41"/>
<path d="M96.7173 480.864H107.361L112.425 439.841L96.7155 439.841L96.7173 480.864Z" fill="#FFB6B6"/>
<path d="M94.0019 477.392L114.964 477.391H114.965C118.507 477.391 121.905 478.797 124.41 481.3C126.915 483.804 128.323 487.199 128.323 490.739V491.172L94.0026 491.174L94.0019 477.392Z" fill="#2F2E41"/>
<path d="M137.164 302.154L111.162 462.631L93.7984 461.764L94.229 314.412L137.164 302.154Z" fill="#064663"/>
<path d="M67.0662 253.124L130.154 253.999L137.164 302.154L94.2291 322.291L75.5664 458.294L59.0706 457.426L53.0466 289.021L67.0662 253.124Z" fill="#064663"/>
<path d="M104.744 128.797C115.39 128.797 124.021 120.174 124.021 109.536C124.021 98.8977 115.39 90.2739 104.744 90.2739C94.0975 90.2739 85.4669 98.8977 85.4669 109.536C85.4669 120.174 94.0975 128.797 104.744 128.797Z" fill="#FFB9B9"/>
<path d="M113.767 139.915L124.897 154.188L119.639 263.63L78.4573 262.754L71.4475 167.321L80.2094 142.806L83.38 137.312L113.767 139.915Z" fill="#E4E4E4"/>
<path d="M132.783 195.338L142.421 232.111L132.783 268.883L148.555 289.896L162.575 223.355C162.575 223.355 152.06 169.072 151.184 162.943C150.308 156.815 148.555 155.939 148.555 155.939L141.545 156.815L132.783 195.338Z" fill="#064663"/>
<path d="M62.6856 209.347L56.5518 220.729L54.7989 239.991L58.3038 261.879L46.0371 282.017L33.7703 226.857L46.9131 155.939H52.1709L62.6856 209.347Z" fill="#064663"/>
<path d="M88.0727 114.525L87.6161 122.311C87.6161 122.311 81.962 109.536 81.0858 96.4026C80.2096 83.2696 95.1054 80.643 103.868 79.7675C112.63 78.8919 127.526 85.0206 127.526 92.0249C127.526 99.0292 111.754 97.2782 105.62 95.5271C99.4865 93.776 96.8578 108.66 96.8578 108.66L93.3529 109.536L88.0727 114.525Z" fill="#2F2E41"/>
<path d="M135.412 207.596L131.907 240.866L138.917 261.003L143.298 280.265C143.298 280.265 143.298 298.652 125.773 299.527C108.249 300.403 57.4278 298.652 57.4278 298.652C57.4278 298.652 50.418 297.776 44.2844 283.767C38.1509 269.759 56.5516 256.626 56.5516 256.626L61.8089 238.24L60.0565 215.476L47.7892 155.939L84.1525 137.115L93.3529 226.857L113.068 139.742L119.64 144.557L147.679 155.939L135.412 207.596Z" fill="#04293A"/>
<path d="M223.768 492H0V490.173H224.099L223.768 492Z" fill="#3F3D56"/>
</g>
<defs>
<clipPath id="clip0_19_2">
<rect width="799" height="492" fill="white"/>
</clipPath>
</defs>
</svg>
