<svg width="223" height="117" viewBox="0 0 223 117" fill="none" xmlns="http://www.w3.org/2000/svg">
<path d="M91.9645 24.8088C91.6807 26.4602 91.0356 27.9697 90.0293 29.3373C89.0488 30.679 87.7199 31.7627 86.0427 32.5884C84.3655 33.3883 82.4174 33.7883 80.1983 33.7883H76.4439L74.8183 43H67.1935L72.0316 15.7132H83.3721C86.2362 15.7132 88.4166 16.3712 89.9132 17.6871C91.4097 18.9773 92.158 20.719 92.158 22.9123C92.158 23.4541 92.0935 24.0863 91.9645 24.8088ZM80.5466 27.7891C82.6883 27.7891 83.9268 26.7956 84.2623 24.8088C84.3139 24.4476 84.3397 24.1895 84.3397 24.0347C84.3397 23.338 84.1075 22.7962 83.643 22.4091C83.2044 21.9963 82.5206 21.7898 81.5917 21.7898H78.5727L77.5277 27.7891H80.5466ZM99.8503 19.274C98.6633 19.274 97.7215 18.9773 97.0248 18.3838C96.354 17.7904 96.0185 17.0292 96.0185 16.1003C96.0185 15.2746 96.2378 14.5134 96.6765 13.8167C97.141 13.0942 97.7602 12.5265 98.5343 12.1137C99.3342 11.675 100.224 11.4557 101.205 11.4557C102.392 11.4557 103.321 11.7653 103.992 12.3846C104.688 12.9781 105.037 13.7522 105.037 14.7069C105.037 15.5326 104.804 16.2938 104.34 16.9905C103.901 17.6871 103.282 18.2419 102.482 18.6548C101.682 19.0676 100.805 19.274 99.8503 19.274ZM103.256 21.2867L99.4245 43H91.7997L95.6702 21.2867H103.256ZM113.963 34.872C113.937 35.001 113.924 35.1559 113.924 35.3365C113.924 35.7493 114.04 36.059 114.272 36.2654C114.53 36.446 114.943 36.5363 115.511 36.5363H117.717L116.556 43H113.227C108.505 43 106.144 41.0132 106.144 37.0395C106.144 36.3686 106.222 35.6074 106.377 34.7559L107.654 27.5955H104.983L106.106 21.2867H108.776L109.705 16.0228H117.33L116.401 21.2867H120.31L119.188 27.5955H115.279L113.963 34.872ZM120.693 32.124C121.106 29.8533 121.919 27.8923 123.132 26.2409C124.37 24.5637 125.893 23.2735 127.699 22.3704C129.531 21.4673 131.518 21.0158 133.659 21.0158C136.42 21.0158 138.614 21.7769 140.239 23.2993C141.865 24.7959 142.716 26.8989 142.794 29.6082H134.704C134.498 28.189 133.711 27.4794 132.343 27.4794C131.389 27.4794 130.563 27.8794 129.866 28.6793C129.17 29.4534 128.692 30.6016 128.434 32.124C128.331 32.6401 128.279 33.1561 128.279 33.6722C128.279 34.7043 128.499 35.4913 128.937 36.0332C129.376 36.5492 129.97 36.8073 130.718 36.8073C132.111 36.8073 133.13 36.0977 133.776 34.6785H141.865C140.858 37.362 139.272 39.465 137.104 40.9874C134.962 42.5097 132.498 43.2709 129.712 43.2709C126.873 43.2709 124.615 42.4968 122.938 40.9487C121.287 39.4005 120.461 37.2717 120.461 34.5624C120.461 33.7883 120.539 32.9755 120.693 32.124ZM161.659 21.0932C163.775 21.0932 165.426 21.6995 166.613 22.9123C167.8 24.125 168.394 25.8151 168.394 27.9826C168.394 28.7309 168.316 29.5179 168.162 30.3436L165.917 43H158.331L160.382 31.3499C160.459 30.9628 160.498 30.6145 160.498 30.3049C160.498 29.376 160.227 28.6535 159.685 28.1374C159.169 27.6213 158.434 27.3633 157.479 27.3633C156.421 27.3633 155.518 27.6859 154.77 28.3309C154.021 28.976 153.518 29.8662 153.26 31.0016L151.132 43H143.507L148.577 14.3585H156.202L154.421 24.3831C155.273 23.4025 156.318 22.6155 157.557 22.0221C158.795 21.4028 160.163 21.0932 161.659 21.0932ZM82.8302 73.7132C85.3331 73.7132 87.5006 74.1648 89.3326 75.0679C91.1646 75.9452 92.558 77.1966 93.5127 78.8222C94.4674 80.4478 94.9448 82.3444 94.9448 84.5118C94.9448 85.4923 94.8545 86.4341 94.6738 87.3373C94.2094 89.9692 93.2031 92.3173 91.6549 94.3815C90.1325 96.4458 88.1844 98.0713 85.8105 99.2583C83.4624 100.419 80.8563 101 77.9921 101H67.1935L72.0316 73.7132H82.8302ZM78.6114 94.3428C80.8305 94.3428 82.6754 93.7364 84.1462 92.5237C85.6169 91.2851 86.5588 89.5563 86.9716 87.3373C87.0748 86.8212 87.1264 86.2664 87.1264 85.673C87.1264 83.9441 86.5975 82.6153 85.5395 81.6864C84.4816 80.7575 82.9979 80.293 81.0885 80.293H78.4953L75.9795 94.3428H78.6114ZM109.357 79.0158C112.195 79.0158 114.44 79.7769 116.091 81.2993C117.768 82.8217 118.607 84.8989 118.607 87.5308C118.607 88.4081 118.542 89.1822 118.413 89.8531C118.259 90.6788 118.104 91.2722 117.949 91.6335H103.59C103.564 91.7883 103.551 92.0205 103.551 92.3302C103.551 93.3107 103.783 94.0332 104.247 94.4976C104.738 94.9621 105.383 95.1943 106.183 95.1943C107.447 95.1943 108.453 94.6266 109.202 93.4913H117.252C116.659 94.9879 115.769 96.3296 114.582 97.5166C113.42 98.6777 112.04 99.5937 110.44 100.265C108.866 100.935 107.189 101.271 105.409 101.271C102.57 101.271 100.313 100.497 98.6353 98.9487C96.9581 97.4005 96.1195 95.2717 96.1195 92.5624C96.1195 91.7883 96.1969 90.9755 96.3517 90.124C96.7646 87.8533 97.5774 85.8923 98.7901 84.2409C100.029 82.5637 101.551 81.2735 103.357 80.3704C105.189 79.4673 107.189 79.0158 109.357 79.0158ZM110.943 88.2275C110.995 87.8662 111.021 87.634 111.021 87.5308C111.021 86.7051 110.763 86.0858 110.247 85.673C109.731 85.2343 109.06 85.015 108.234 85.015C107.279 85.015 106.454 85.2859 105.757 85.8278C105.06 86.3696 104.544 87.1695 104.209 88.2275H110.943ZM120.202 90.124C120.615 87.8533 121.428 85.8923 122.64 84.2409C123.879 82.5637 125.401 81.2735 127.208 80.3704C129.04 79.4673 131.026 79.0158 133.168 79.0158C135.929 79.0158 138.122 79.7769 139.748 81.2993C141.373 82.7959 142.225 84.8989 142.302 87.6082H134.213C134.007 86.189 133.22 85.4794 131.852 85.4794C130.897 85.4794 130.072 85.8794 129.375 86.6793C128.678 87.4534 128.201 88.6016 127.943 90.124C127.84 90.6401 127.788 91.1561 127.788 91.6722C127.788 92.7043 128.007 93.4913 128.446 94.0332C128.885 94.5492 129.478 94.8073 130.226 94.8073C131.62 94.8073 132.639 94.0977 133.284 92.6785H141.373C140.367 95.362 138.78 97.465 136.613 98.9874C134.471 100.51 132.007 101.271 129.22 101.271C126.382 101.271 124.124 100.497 122.447 98.9487C120.795 97.4005 119.97 95.2717 119.97 92.5624C119.97 91.7883 120.047 90.9755 120.202 90.124ZM159.078 90.2014L165.851 101H156.601L152.227 92.1366L150.64 101H143.015L148.086 72.3585H155.71L153.001 87.763L160.471 79.2867H169.567L159.078 90.2014Z" fill="black"/>
<path d="M30.96 38.44C30.608 40.488 29.808 42.36 28.56 44.056C27.344 45.72 25.696 47.064 23.616 48.088C21.536 49.08 19.12 49.576 16.368 49.576H11.712L9.696 61H0.24L6.24 27.16H20.304C23.856 27.16 26.56 27.976 28.416 29.608C30.272 31.208 31.2 33.368 31.2 36.088C31.2 36.76 31.12 37.544 30.96 38.44ZM16.8 42.136C19.456 42.136 20.992 40.904 21.408 38.44C21.472 37.992 21.504 37.672 21.504 37.48C21.504 36.616 21.216 35.944 20.64 35.464C20.096 34.952 19.248 34.696 18.096 34.696H14.352L13.056 42.136H16.8Z" fill="black"/>
<path d="M30.96 38.44C30.608 40.488 29.808 42.36 28.56 44.056C27.344 45.72 25.696 47.064 23.616 48.088C21.536 49.08 19.12 49.576 16.368 49.576H11.712L9.696 61H0.24L6.24 27.16H20.304C23.856 27.16 26.56 27.976 28.416 29.608C30.272 31.208 31.2 33.368 31.2 36.088C31.2 36.76 31.12 37.544 30.96 38.44ZM16.8 42.136C19.456 42.136 20.992 40.904 21.408 38.44C21.472 37.992 21.504 37.672 21.504 37.48C21.504 36.616 21.216 35.944 20.64 35.464C20.096 34.952 19.248 34.696 18.096 34.696H14.352L13.056 42.136H16.8Z" fill="black"/>
<path d="M32.632 51.16C35.736 51.16 38.424 51.72 40.696 52.84C42.968 53.928 44.696 55.48 45.88 57.496C47.064 59.512 47.656 61.864 47.656 64.552C47.656 65.768 47.544 66.936 47.32 68.056C46.744 71.32 45.496 74.232 43.576 76.792C41.688 79.352 39.272 81.368 36.328 82.84C33.416 84.28 30.184 85 26.632 85H13.24L19.24 51.16H32.632ZM27.4 76.744C30.152 76.744 32.44 75.992 34.264 74.488C36.088 72.952 37.256 70.808 37.768 68.056C37.896 67.416 37.96 66.728 37.96 65.992C37.96 63.848 37.304 62.2 35.992 61.048C34.68 59.896 32.84 59.32 30.472 59.32H27.256L24.136 76.744H27.4Z" fill="black"/>
</svg>
